<svg xmlns="http://www.w3.org/2000/svg" viewBox="0 0 96 96" fill="none">
  <defs>
    <linearGradient id="azure-a" x1="-1032.172" x2="-1059.213" y1="145.312" y2="65.426" gradientTransform="matrix(1 0 0 -1 1075 158)" gradientUnits="userSpaceOnUse">
      <stop offset="0" stop-color="#114A8B"/>
      <stop offset="1" stop-color="#0669BC"/>
    </linearGradient>
    <linearGradient id="azure-b" x1="-1023.725" x2="-1029.98" y1="108.083" y2="105.968" gradientTransform="matrix(1 0 0 -1 1075 158)" gradientUnits="userSpaceOnUse">
      <stop offset="0" stop-opacity=".3"/>
      <stop offset=".071" stop-opacity=".2"/>
      <stop offset=".321" stop-opacity=".1"/>
      <stop offset=".623" stop-opacity=".05"/>
      <stop offset="1" stop-opacity="0"/>
    </linearGradient>
    <linearGradient id="azure-c" x1="-1027.165" x2="-997.482" y1="147.642" y2="68.561" gradientTransform="matrix(1 0 0 -1 1075 158)" gradientUnits="userSpaceOnUse">
      <stop offset="0" stop-color="#3CCBF4"/>
      <stop offset="1" stop-color="#2892DF"/>
    </linearGradient>
  </defs>
  <path fill="url(#azure-a)" d="M33.3 6.5h26.4L32.3 87.5a4.2 4.2 0 0 1-4 2.9H7.8a4.2 4.2 0 0 1-4-5.6L29.3 9.4a4.2 4.2 0 0 1 4-2.9z"/>
  <path fill="#0078D4" d="M71.2 60.9H29.3a1.9 1.9 0 0 0-1.3 3.4l26.9 25.1a4.2 4.2 0 0 0 2.9 1.1h23.7z"/>
  <path fill="url(#azure-b)" d="M33.3 6.5a4.2 4.2 0 0 0-4 2.9l-25.5 75.4a4.2 4.2 0 0 0 4 5.6h21a4.5 4.5 0 0 0 3.4-2.9l5.1-15 18.1 16.9a4.3 4.3 0 0 0 2.7 1H81l-9.7-29.5-28.4.1L60.3 6.5z"/>
  <path fill="url(#azure-c)" d="M66.7 9.4a4.2 4.2 0 0 0-4-2.9H33.6a4.2 4.2 0 0 1 4 2.9l25.5 75.4a4.2 4.2 0 0 1-4 5.6h29.1a4.2 4.2 0 0 0 4-5.6z"/>
</svg>
